G04*
G04 #@! TF.GenerationSoftware,Altium Limited,Altium Designer,22.10.1 (41)*
G04*
G04 Layer_Color=16711935*
%FSLAX43Y43*%
%MOMM*%
G71*
G04*
G04 #@! TF.SameCoordinates,C4451B6D-C533-4BC9-A511-8E29B532BE62*
G04*
G04*
G04 #@! TF.FilePolarity,Negative*
G04*
G01*
G75*
%ADD16C,0.254*%
%ADD63R,1.103X1.253*%
%ADD69R,1.253X1.103*%
%ADD72R,1.253X1.153*%
%ADD85C,1.803*%
%ADD86R,1.803X1.803*%
%ADD87C,1.703*%
%ADD88R,1.703X1.703*%
%ADD89C,1.352*%
%ADD90R,1.352X1.352*%
%ADD91R,1.703X1.703*%
%ADD92C,5.203*%
%ADD93R,2.603X2.603*%
%ADD94C,2.603*%
%ADD95C,0.903*%
%ADD96C,0.803*%
%ADD97C,0.500*%
%ADD119R,0.457X1.003*%
%ADD121O,0.803X2.403*%
D16*
X88225Y72400D02*
G03*
X86955Y71130I0J-1270D01*
G01*
X99923Y122377D02*
G03*
X98500Y123800I-1423J0D01*
G01*
X21230Y73670D02*
G03*
X22500Y72400I1270J0D01*
G01*
X22602Y123802D02*
G03*
X21201Y122401I0J-1401D01*
G01*
X98623Y72400D02*
G03*
X99893Y73670I0J1270D01*
G01*
X34168Y71130D02*
G03*
X32898Y72400I-1270J0D01*
G01*
X34163Y26670D02*
G03*
X35433Y25400I1270J0D01*
G01*
X85685Y25400D02*
G03*
X86955Y26670I0J1270D01*
G01*
X99893Y73670D02*
X99923Y122377D01*
X22600Y123800D02*
X98500D01*
X22500Y72400D02*
X32898D01*
X21200Y122401D02*
X21230Y73670D01*
X88225Y72400D02*
X98600D01*
X34168Y71130D02*
X34168Y26670D01*
X35433Y25400D02*
X85685Y25400D01*
X86955Y71130D02*
X86955Y26670D01*
D63*
X33725Y100150D02*
D03*
X32275D02*
D03*
X33225Y92900D02*
D03*
X31775D02*
D03*
X25775D02*
D03*
X27225D02*
D03*
X26275Y100150D02*
D03*
X27725D02*
D03*
D69*
X38000Y106125D02*
D03*
Y104675D02*
D03*
X40250Y106125D02*
D03*
Y104675D02*
D03*
D72*
X30000Y100175D02*
D03*
Y101625D02*
D03*
X29500Y92900D02*
D03*
Y91450D02*
D03*
X42500Y104675D02*
D03*
Y106125D02*
D03*
D85*
X40930Y67800D02*
D03*
D86*
X43470D02*
D03*
D87*
X23350Y112000D02*
D03*
Y110000D02*
D03*
Y114000D02*
D03*
X35100Y121650D02*
D03*
X33100D02*
D03*
X37100D02*
D03*
X84672Y71755D02*
D03*
Y69215D02*
D03*
Y66675D02*
D03*
Y64135D02*
D03*
Y61595D02*
D03*
Y53975D02*
D03*
Y51435D02*
D03*
Y48895D02*
D03*
Y46355D02*
D03*
Y43815D02*
D03*
Y41275D02*
D03*
Y38735D02*
D03*
X36322Y71755D02*
D03*
Y69215D02*
D03*
Y66675D02*
D03*
Y64135D02*
D03*
Y61595D02*
D03*
Y59055D02*
D03*
Y56515D02*
D03*
Y29591D02*
D03*
Y34671D02*
D03*
Y37211D02*
D03*
Y39751D02*
D03*
Y42291D02*
D03*
Y44831D02*
D03*
Y47371D02*
D03*
Y49911D02*
D03*
Y32131D02*
D03*
D88*
X23350Y108000D02*
D03*
X84672Y59055D02*
D03*
Y36195D02*
D03*
X36322Y53975D02*
D03*
Y27051D02*
D03*
D89*
X48500Y121600D02*
D03*
X51000D02*
D03*
X53500D02*
D03*
X56000D02*
D03*
X58500D02*
D03*
X61000D02*
D03*
X63500D02*
D03*
D90*
X66000D02*
D03*
D91*
X31100Y121650D02*
D03*
D92*
X96900Y120800D02*
D03*
X24200D02*
D03*
X96900Y75400D02*
D03*
X24200D02*
D03*
D93*
X79000Y30000D02*
D03*
D94*
X73920D02*
D03*
D95*
X97176Y107035D02*
D03*
X97476Y98999D02*
D03*
X69900Y107018D02*
D03*
X97409Y94996D02*
D03*
X43074Y45080D02*
D03*
X29400Y88700D02*
D03*
X38000Y91050D02*
D03*
X73700Y42500D02*
D03*
X41700Y109900D02*
D03*
X32100Y91600D02*
D03*
X36700Y90600D02*
D03*
X35300Y99900D02*
D03*
X37900Y94800D02*
D03*
X31700Y97800D02*
D03*
X51900Y64200D02*
D03*
X47400Y42900D02*
D03*
X41495Y44705D02*
D03*
X61800Y53200D02*
D03*
X24000Y97000D02*
D03*
X28700Y101300D02*
D03*
X42500Y107300D02*
D03*
X46700Y99400D02*
D03*
X40700Y94700D02*
D03*
X43700Y94800D02*
D03*
X35900Y104400D02*
D03*
X33000Y97800D02*
D03*
X24500Y92900D02*
D03*
X42000Y89400D02*
D03*
X40000Y87500D02*
D03*
X56200Y86225D02*
D03*
X48700Y62200D02*
D03*
X64000Y57700D02*
D03*
X59200Y51900D02*
D03*
X66700Y73900D02*
D03*
X74800Y82200D02*
D03*
X72000Y84200D02*
D03*
X93700Y85000D02*
D03*
X94200Y91200D02*
D03*
X88100Y86200D02*
D03*
X84340Y87100D02*
D03*
X81900Y75400D02*
D03*
X93400Y74300D02*
D03*
X94400Y78100D02*
D03*
X87600Y78000D02*
D03*
X60300Y83500D02*
D03*
X54700Y77600D02*
D03*
X77000Y85700D02*
D03*
X71700Y114900D02*
D03*
X87600Y83600D02*
D03*
X66900Y91000D02*
D03*
X60800Y86200D02*
D03*
X66000Y85900D02*
D03*
X67300Y86100D02*
D03*
X63100Y71100D02*
D03*
X40800Y59000D02*
D03*
X42400Y57500D02*
D03*
X43500Y72000D02*
D03*
X40400Y65800D02*
D03*
X43500Y73800D02*
D03*
X44225Y65000D02*
D03*
X35600Y77300D02*
D03*
X53400Y47100D02*
D03*
X64300Y55000D02*
D03*
X62400Y48500D02*
D03*
X52987Y51487D02*
D03*
X52800Y45300D02*
D03*
X44100Y78700D02*
D03*
X41450Y104700D02*
D03*
X38850Y111400D02*
D03*
X27350Y98200D02*
D03*
X27650Y101300D02*
D03*
X26950Y94500D02*
D03*
X26550Y89000D02*
D03*
X43300Y92100D02*
D03*
X24500Y96000D02*
D03*
X67300Y76300D02*
D03*
X67400Y77800D02*
D03*
X60300Y78100D02*
D03*
X45000Y83500D02*
D03*
X54600Y55500D02*
D03*
X60900Y55400D02*
D03*
X56124Y75183D02*
D03*
X52124Y79783D02*
D03*
X57424Y84283D02*
D03*
X58924Y82983D02*
D03*
X58424Y115483D02*
D03*
X50224Y87300D02*
D03*
X68300Y88400D02*
D03*
X70800Y93700D02*
D03*
X56300Y66000D02*
D03*
X57500Y65800D02*
D03*
X83400Y75200D02*
D03*
X86200Y83000D02*
D03*
X85700Y115500D02*
D03*
X91100Y114400D02*
D03*
X84700Y84300D02*
D03*
X79400Y79800D02*
D03*
X54600Y51000D02*
D03*
X48700Y52900D02*
D03*
X52300Y52400D02*
D03*
X63100Y63800D02*
D03*
X46600Y39700D02*
D03*
X76600Y65300D02*
D03*
X71600D02*
D03*
X74100D02*
D03*
X59075Y66424D02*
D03*
X59825Y64900D02*
D03*
X54400Y66800D02*
D03*
X53400Y65300D02*
D03*
X69800Y51500D02*
D03*
X74800Y50800D02*
D03*
X77600Y51500D02*
D03*
X56900Y51100D02*
D03*
X62800Y36700D02*
D03*
X60600Y62400D02*
D03*
X60800Y59900D02*
D03*
X51600Y61800D02*
D03*
X51440Y59806D02*
D03*
X51600Y58200D02*
D03*
X58000Y55500D02*
D03*
X79900Y58400D02*
D03*
X79700Y61300D02*
D03*
X72125Y55250D02*
D03*
X40350Y39700D02*
D03*
D96*
X84074Y25908D02*
D03*
X68834D02*
D03*
X71374D02*
D03*
X73914D02*
D03*
X81534D02*
D03*
X78994D02*
D03*
X76454D02*
D03*
X53594D02*
D03*
X56134D02*
D03*
X58674D02*
D03*
X63754D02*
D03*
X38354D02*
D03*
X40894D02*
D03*
X43434D02*
D03*
X51054D02*
D03*
X48514D02*
D03*
X45974D02*
D03*
X99187Y87630D02*
D03*
Y85090D02*
D03*
Y82550D02*
D03*
Y80010D02*
D03*
Y100330D02*
D03*
Y97790D02*
D03*
Y90170D02*
D03*
Y92710D02*
D03*
Y95250D02*
D03*
Y118110D02*
D03*
Y115570D02*
D03*
Y113030D02*
D03*
Y105410D02*
D03*
Y107950D02*
D03*
Y110490D02*
D03*
X84963Y123190D02*
D03*
X87503D02*
D03*
X90043D02*
D03*
X92583D02*
D03*
X69723D02*
D03*
X72263D02*
D03*
X74803D02*
D03*
X82423D02*
D03*
X79883D02*
D03*
X77343D02*
D03*
X89773Y91096D02*
D03*
X86033D02*
D03*
X92247Y90590D02*
D03*
X94468Y97475D02*
D03*
Y99345D02*
D03*
X56673Y106426D02*
D03*
Y104556D02*
D03*
X56709Y101910D02*
D03*
X59562Y111931D02*
D03*
X65834Y104522D02*
D03*
X65738Y102655D02*
D03*
Y97045D02*
D03*
X57038Y88110D02*
D03*
Y86240D02*
D03*
X65855Y93768D02*
D03*
X67192Y95075D02*
D03*
Y96945D02*
D03*
Y102555D02*
D03*
X67539Y104393D02*
D03*
X67627Y110001D02*
D03*
Y111871D02*
D03*
X66840Y113567D02*
D03*
X24802Y95104D02*
D03*
X52714Y91000D02*
D03*
X58324D02*
D03*
X60194D02*
D03*
X62064D02*
D03*
X66350Y87460D02*
D03*
X68731Y65879D02*
D03*
X71659Y63600D02*
D03*
X76674Y64283D02*
D03*
X76981Y66128D02*
D03*
X69000Y70625D02*
D03*
Y85585D02*
D03*
X65781Y90009D02*
D03*
X59184Y92400D02*
D03*
X57314D02*
D03*
X55444D02*
D03*
X53574D02*
D03*
X49834D02*
D03*
X62155Y113893D02*
D03*
X64004Y114173D02*
D03*
X65874D02*
D03*
X67744D02*
D03*
X69614D02*
D03*
X71000Y112917D02*
D03*
Y111047D02*
D03*
Y107307D02*
D03*
Y99827D02*
D03*
Y97957D02*
D03*
Y96087D02*
D03*
X70600Y90520D02*
D03*
Y88650D02*
D03*
Y86780D02*
D03*
Y69950D02*
D03*
X69468Y64863D02*
D03*
X72000Y69074D02*
D03*
Y70944D02*
D03*
Y72814D02*
D03*
Y80294D02*
D03*
Y82164D02*
D03*
X72400Y100834D02*
D03*
Y102704D02*
D03*
Y104574D02*
D03*
Y106444D02*
D03*
Y108314D02*
D03*
Y110184D02*
D03*
Y113924D02*
D03*
X72017Y115754D02*
D03*
X70152Y115627D02*
D03*
X68282D02*
D03*
X66412D02*
D03*
X64542D02*
D03*
X62715Y116030D02*
D03*
X88791Y113927D02*
D03*
X90634Y113611D02*
D03*
X93100Y105249D02*
D03*
Y103379D02*
D03*
Y101509D02*
D03*
Y97769D02*
D03*
Y95899D02*
D03*
X93506Y92204D02*
D03*
X94100Y86719D02*
D03*
X81386Y77492D02*
D03*
X79978Y76261D02*
D03*
X78655Y74939D02*
D03*
X77333Y73616D02*
D03*
X76011Y72294D02*
D03*
X74689Y70972D02*
D03*
X76586Y70889D02*
D03*
X77908Y72211D02*
D03*
X79231Y73534D02*
D03*
X80553Y74856D02*
D03*
X88572Y82698D02*
D03*
X95500Y86516D02*
D03*
X95575Y90255D02*
D03*
X94500Y95575D02*
D03*
Y101185D02*
D03*
Y103055D02*
D03*
X92802Y113689D02*
D03*
X91630Y115146D02*
D03*
X89991Y116047D02*
D03*
X78613Y76835D02*
D03*
X77291Y75513D02*
D03*
X75968Y74190D02*
D03*
X85873Y88605D02*
D03*
Y86735D02*
D03*
X80777Y82627D02*
D03*
X78907D02*
D03*
X69436Y73227D02*
D03*
X60180Y63971D02*
D03*
X63364Y65174D02*
D03*
X64687Y66497D02*
D03*
X66009Y67819D02*
D03*
X67331Y69141D02*
D03*
X69976Y71786D02*
D03*
X72620Y74430D02*
D03*
X74471Y74700D02*
D03*
X78800Y77808D02*
D03*
X79950Y81173D02*
D03*
X81820D02*
D03*
X76073Y82223D02*
D03*
Y80353D02*
D03*
Y78483D02*
D03*
X74812Y77102D02*
D03*
X72942Y77100D02*
D03*
X69641Y75881D02*
D03*
X63029Y69270D02*
D03*
X61707Y67947D02*
D03*
X60385Y66625D02*
D03*
X60748Y65032D02*
D03*
X62082Y66342D02*
D03*
X63404Y67664D02*
D03*
X64726Y68986D02*
D03*
X66049Y70309D02*
D03*
X67371Y71631D02*
D03*
X70016Y74275D02*
D03*
X77470Y80264D02*
D03*
X77527Y82187D02*
D03*
X80916Y85182D02*
D03*
X36001Y83801D02*
D03*
X42613Y77190D02*
D03*
X45257Y74545D02*
D03*
X47902Y71900D02*
D03*
X49224Y70578D02*
D03*
X46339Y75444D02*
D03*
X45017Y76766D02*
D03*
X37083Y84700D02*
D03*
X36000Y86224D02*
D03*
Y88094D02*
D03*
Y89964D02*
D03*
X40260Y99762D02*
D03*
X54737Y72136D02*
D03*
X58597Y88091D02*
D03*
Y86221D02*
D03*
X52939Y82610D02*
D03*
X51072Y82505D02*
D03*
X51943Y72136D02*
D03*
X55436Y67878D02*
D03*
X51551Y77790D02*
D03*
X52674Y81156D02*
D03*
X54544D02*
D03*
X60051Y85334D02*
D03*
X49482Y85169D02*
D03*
X48797Y81559D02*
D03*
Y79689D02*
D03*
Y77819D02*
D03*
X54012Y68478D02*
D03*
X50165Y76581D02*
D03*
Y78486D02*
D03*
Y80264D02*
D03*
X50251Y82170D02*
D03*
X50403Y84033D02*
D03*
X53640Y85165D02*
D03*
X32942Y108398D02*
D03*
X33020Y104648D02*
D03*
X33873Y97337D02*
D03*
X33909Y91694D02*
D03*
Y88011D02*
D03*
Y86233D02*
D03*
Y84328D02*
D03*
X35070Y82802D02*
D03*
X36392Y81480D02*
D03*
X40359Y77513D02*
D03*
X41681Y76190D02*
D03*
X45720Y72009D02*
D03*
X46989Y70921D02*
D03*
X48312Y69598D02*
D03*
X50500Y64749D02*
D03*
X50545Y62879D02*
D03*
X35327Y102449D02*
D03*
X34382Y107808D02*
D03*
X42418Y79375D02*
D03*
X43942Y116459D02*
D03*
Y98679D02*
D03*
Y113919D02*
D03*
Y111379D02*
D03*
Y108839D02*
D03*
Y101219D02*
D03*
Y103759D02*
D03*
Y106299D02*
D03*
X22225Y94361D02*
D03*
Y96901D02*
D03*
Y99441D02*
D03*
Y104521D02*
D03*
Y101981D02*
D03*
Y86741D02*
D03*
Y89281D02*
D03*
Y91821D02*
D03*
Y84201D02*
D03*
Y81661D02*
D03*
Y79121D02*
D03*
X41500Y62100D02*
D03*
X72600Y113100D02*
D03*
Y112200D02*
D03*
Y111300D02*
D03*
X42800Y60700D02*
D03*
X55600Y45700D02*
D03*
X95600Y88400D02*
D03*
X81100Y46600D02*
D03*
Y45700D02*
D03*
Y44800D02*
D03*
X66900Y36600D02*
D03*
X66000D02*
D03*
X65100D02*
D03*
X69800Y27000D02*
D03*
X68900D02*
D03*
X68000D02*
D03*
X45200Y111400D02*
D03*
Y112300D02*
D03*
Y113200D02*
D03*
X32100Y88900D02*
D03*
Y89800D02*
D03*
Y90700D02*
D03*
X46800Y56200D02*
D03*
Y55300D02*
D03*
Y54400D02*
D03*
X54600Y46000D02*
D03*
X53800Y45700D02*
D03*
X54100Y39600D02*
D03*
X55000D02*
D03*
X55900D02*
D03*
X60300Y34700D02*
D03*
X61200D02*
D03*
X62100D02*
D03*
X72400Y35600D02*
D03*
X71500D02*
D03*
X70600D02*
D03*
X82300Y42500D02*
D03*
X74900Y41700D02*
D03*
X72500Y46500D02*
D03*
X63700Y47200D02*
D03*
X65800Y47100D02*
D03*
X48400Y42000D02*
D03*
X52200D02*
D03*
X50400D02*
D03*
X49400D02*
D03*
X63200Y26900D02*
D03*
X57000D02*
D03*
X60300Y44500D02*
D03*
X63900Y43800D02*
D03*
X56250Y60350D02*
D03*
X42825Y49273D02*
D03*
X46550Y49300D02*
D03*
X45373Y56020D02*
D03*
Y57890D02*
D03*
Y59760D02*
D03*
Y61630D02*
D03*
Y65370D02*
D03*
Y69273D02*
D03*
X43503D02*
D03*
X33300Y76100D02*
D03*
X28250Y110800D02*
D03*
X30650Y87000D02*
D03*
X38100Y48600D02*
D03*
X63395Y49273D02*
D03*
X72745D02*
D03*
X69183Y69273D02*
D03*
X69005Y49273D02*
D03*
X61525D02*
D03*
X50299Y49279D02*
D03*
X80225Y49273D02*
D03*
X65265D02*
D03*
X76485D02*
D03*
X82273Y52584D02*
D03*
X54039Y49279D02*
D03*
X83727Y65145D02*
D03*
X82095Y49273D02*
D03*
X55915D02*
D03*
X67427Y59279D02*
D03*
X70875Y49273D02*
D03*
X82273Y63804D02*
D03*
X67427Y53669D02*
D03*
X82050Y50727D02*
D03*
X82273Y67544D02*
D03*
X83727Y63275D02*
D03*
X78533Y69273D02*
D03*
X67427Y55539D02*
D03*
X83727Y55795D02*
D03*
X52169Y49279D02*
D03*
X67427Y57409D02*
D03*
X72923Y69273D02*
D03*
X74793D02*
D03*
X67427Y64889D02*
D03*
Y61149D02*
D03*
Y66759D02*
D03*
X48429Y49279D02*
D03*
X82273Y69273D02*
D03*
Y60064D02*
D03*
Y61934D02*
D03*
X67427Y51799D02*
D03*
X82273Y58194D02*
D03*
X74615Y49273D02*
D03*
X83727Y57665D02*
D03*
X82273Y65674D02*
D03*
X59655Y49273D02*
D03*
X78355D02*
D03*
X67135D02*
D03*
X76663Y69273D02*
D03*
X37273Y51713D02*
D03*
X70324Y103883D02*
D03*
Y104683D02*
D03*
X69424Y103083D02*
D03*
Y103883D02*
D03*
X70324Y103083D02*
D03*
X69424Y104683D02*
D03*
X46424Y92783D02*
D03*
X46824Y88883D02*
D03*
Y89683D02*
D03*
X47224Y93683D02*
D03*
Y92783D02*
D03*
X48024D02*
D03*
X46424Y93683D02*
D03*
X46824Y90483D02*
D03*
X51432Y97212D02*
D03*
Y98012D02*
D03*
Y98812D02*
D03*
X48024Y93683D02*
D03*
X56524Y89683D02*
D03*
Y90483D02*
D03*
Y88883D02*
D03*
X51924Y89683D02*
D03*
Y88883D02*
D03*
Y90483D02*
D03*
X96700Y104700D02*
D03*
Y103900D02*
D03*
X97600Y103100D02*
D03*
X96700D02*
D03*
X97600Y104700D02*
D03*
Y103900D02*
D03*
X75300Y93700D02*
D03*
Y92800D02*
D03*
X74500D02*
D03*
Y93700D02*
D03*
X79200Y88900D02*
D03*
Y89700D02*
D03*
X74100D02*
D03*
Y88900D02*
D03*
X78707Y98829D02*
D03*
X74100Y90500D02*
D03*
X73700Y92800D02*
D03*
Y93700D02*
D03*
X78707Y97229D02*
D03*
X83800Y90500D02*
D03*
Y89700D02*
D03*
Y88900D02*
D03*
X78707Y98029D02*
D03*
X79200Y90500D02*
D03*
X94900Y120900D02*
D03*
X98900D02*
D03*
X96900Y118900D02*
D03*
Y122900D02*
D03*
X95503Y119503D02*
D03*
Y122297D02*
D03*
X98297Y119503D02*
D03*
Y122297D02*
D03*
X49500Y47700D02*
D03*
X50200D02*
D03*
X50900D02*
D03*
X53500Y35600D02*
D03*
X54200D02*
D03*
X54900D02*
D03*
X55600D02*
D03*
X25597Y122197D02*
D03*
Y119403D02*
D03*
X22803Y122197D02*
D03*
Y119403D02*
D03*
X24200Y122800D02*
D03*
Y118800D02*
D03*
X26200Y120800D02*
D03*
X22200D02*
D03*
X98297Y76797D02*
D03*
Y74003D02*
D03*
X95503Y76797D02*
D03*
Y74003D02*
D03*
X96900Y77400D02*
D03*
Y73400D02*
D03*
X98900Y75400D02*
D03*
X94900D02*
D03*
X25597Y76797D02*
D03*
Y74003D02*
D03*
X22803Y76797D02*
D03*
Y74003D02*
D03*
X24200Y77400D02*
D03*
Y73400D02*
D03*
X26200Y75400D02*
D03*
X22200D02*
D03*
X61000Y47100D02*
D03*
X60300D02*
D03*
X59600D02*
D03*
X74700Y38700D02*
D03*
X73700Y39500D02*
D03*
Y38700D02*
D03*
D97*
X44975Y42700D02*
D03*
X43725D02*
D03*
X44350Y42200D02*
D03*
Y43200D02*
D03*
D119*
X30550Y97804D02*
D03*
X29900D02*
D03*
X29250D02*
D03*
X28600D02*
D03*
Y95150D02*
D03*
X29250D02*
D03*
X29900D02*
D03*
X30550D02*
D03*
D121*
X41750Y96600D02*
D03*
X40480D02*
D03*
X39210D02*
D03*
X37940D02*
D03*
X41750Y101400D02*
D03*
X40480D02*
D03*
X39210D02*
D03*
X37940D02*
D03*
M02*
