M48
;Layer_Color=9474304
;FILE_FORMAT=4:3
METRIC,LZ
;TYPE=PLATED
T1F00S00C0.200
T2F00S00C0.400
T3F00S00C0.850
T4F00S00C0.900
T5F00S00C1.000
T6F00S00C1.100
T7F00S00C1.600
T8F00S00C3.000
%
T01
X0043725Y00427
X004435Y00422
Y00432
X0044975Y00427
T02
X0038354Y0025908
X0040894
X0043434
X0045974
X0048514
X0051054
X0053594
X0056134
X0057Y00269
X0058674Y0025908
X0063754
X00632Y00269
X0068Y0027
X00689
X00698
X0068834Y0025908
X0071374
X0073914
X0076454
X0078994
X00724Y00356
X00715
X00706
X00669Y00366
X0066
X00651
X00628Y00367
X00621Y00347
X00612
X00603
X00556Y00356
X00549
X00542
X00535
X00541Y00396
X0055
X00559
X00737Y00395
Y00387
X00747
X0081534Y0025908
X0084074
X00823Y00425
X00811Y00448
Y00457
Y00466
X0080225Y0049273
X0082095
X008205Y0050727
X0082273Y0052584
X0083727Y0055795
Y0057665
X0082273Y0058194
Y0060064
Y0061934
Y0063804
Y0065674
Y0067544
Y0069273
X0083727Y0065145
Y0063275
X00797Y00613
X00799Y00584
X0080553Y0074856
X00819Y00754
X00834Y00752
X0081386Y0077492
X0079978Y0076261
X00876Y0078
X00944Y00781
X0095503Y0076797
X00969Y00774
X0098297Y0076797
X00989Y00754
X0098297Y0074003
X00969Y00734
X0095503Y0074003
X00949Y00754
X00934Y00743
X0079231Y0073534
X0078655Y0074939
X0078613Y0076835
X00788Y0077808
X0076073Y0078483
X0074812Y0077102
X0072942Y00771
X007262Y007443
X0074471Y00747
X0075968Y007419
X0077333Y0073616
X0077291Y0075513
X0077908Y0072211
X0076011Y0072294
X0076586Y0070889
X0076663Y0069273
X0078533
X0074793
X0074689Y0070972
X0072Y0070944
Y0069074
X0072923Y0069273
X00706Y006995
X0069183Y0069273
X0069Y0070625
X0069976Y0071786
X0069436Y0073227
X0070016Y0074275
X0069641Y0075881
X00673Y00763
X00674Y00778
X00667Y00739
X0067371Y0071631
X0067331Y0069141
X0066049Y0070309
X0066009Y0067819
X0064726Y0068986
X0063029Y006927
X00631Y00711
X0063404Y0067664
X0061707Y0067947
X0062082Y0066342
X0060385Y0066625
X0059075Y0066424
X00575Y00658
X00563Y0066
X00544Y00668
X0054012Y0068478
X0055436Y0067878
X00534Y00653
X00519Y00642
X00505Y0064749
X0050545Y0062879
X00516Y00618
X005144Y0059806
X00516Y00582
X00546Y00555
X0058
X00609Y00554
X00618Y00532
X00592Y00519
X0059655Y0049273
X0061525
X00624Y00485
X0063395Y0049273
X0065265
X0067135
X0069005
X0070875
X0072745
X0074615
X00748Y00508
X0076485Y0049273
X0078355
X00776Y00515
X00698
X0067427Y0051799
Y0053669
Y0055539
Y0057409
Y0059279
Y0061149
Y0064889
Y0066759
X0068731Y0065879
X0069468Y0064863
X00716Y00653
X0071659Y00636
X00741Y00653
X00766
X0076674Y0064283
X0076981Y0066128
X0072Y0072814
X0064687Y0066497
X0063364Y0065174
X00631Y00638
X006018Y0063971
X0059825Y00649
X0060748Y0065032
X00606Y00624
X00608Y00599
X005625Y006035
X00487Y00622
X0045373Y006163
Y005976
Y005789
Y005602
X00468Y00562
Y00553
Y00544
X00487Y00529
X0048429Y0049279
X0050299
X00502Y00477
X00509
X00495
X0052169Y0049279
X0054039
X0055915Y0049273
X00569Y00511
X00546Y0051
X0052987Y0051487
X00523Y00524
X00534Y00471
X00538Y00457
X00546Y0046
X00556Y00457
X00528Y00453
X00522Y0042
X00504
X00494
X00484
X00474Y00429
X00466Y00397
X004035
X0041495Y0044705
X0043074Y004508
X0042825Y0049273
X004655Y00493
X00424Y00575
X00408Y0059
X00428Y00607
X00415Y00621
X00404Y00658
X0044225Y0065
X0045373Y006537
Y0069273
X0043503
X00435Y0072
Y00738
X0045257Y0074545
X0046339Y0075444
X0045017Y0076766
X0042613Y007719
X0041681Y007619
X0040359Y0077513
X00441Y00787
X0048797Y0077819
X0050165Y0078486
Y0076581
X0051551Y007779
X00547Y00776
X0056124Y0075183
X0054737Y0072136
X0051943
X0047902Y00719
X0046989Y0070921
X004572Y0072009
X0049224Y0070578
X0048312Y0069598
X00603Y00781
X0064Y00577
X00643Y0055
X0072125Y005525
X00725Y00465
X00737Y00425
X00749Y00417
X00639Y00438
X00637Y00472
X00658Y00471
X0061Y00471
X00603
X00596
X00603Y00445
X00381Y00486
X0037273Y0051713
X00356Y00773
X00333Y00761
X00262Y00754
X0025597Y0076797
X00242Y00774
X0022803Y0076797
X00222Y00754
X0022803Y0074003
X00242Y00734
X0025597Y0074003
X0022225Y0079121
Y0081661
Y0084201
Y0086741
Y0089281
Y0091821
Y0094361
Y0096901
X0024Y0097
X00245Y0096
X0024802Y0095104
X00245Y00929
X002695Y00945
X002735Y00982
X002765Y01013
X00287Y01013
X00317Y00978
X0033
X0033873Y0097337
X00353Y00999
X0035327Y0102449
X00359Y01044
X003302Y0104648
X0032942Y0108398
X0034382Y0107808
X003885Y01114
X002825Y01108
X00242Y01188
X0022225Y0104521
Y0101981
Y0099441
X002655Y0089
X00294Y00887
X00321Y00889
Y00898
Y00907
Y00916
X0033909Y0091694
Y0088011
Y0086233
Y0084328
X0036001Y0083801
X003507Y0082802
X0036392Y008148
X0037083Y00847
X0036Y0086224
Y0088094
Y0089964
X00367Y00906
X0038Y009105
X00379Y00948
X003065Y0087
X004Y00875
X0042Y00894
X00433Y00921
X00437Y00948
X00407Y00947
X004026Y0099762
X0043942Y0098679
Y0101219
Y0103759
Y0106299
X00425Y01073
X0043942Y0108839
Y0111379
X00452Y01114
Y01123
Y01132
X0043942Y0113919
Y0116459
X00417Y01099
X004145Y01047
X00467Y00994
X0051432Y0098812
Y0098012
Y0097212
X0049834Y00924
X0048024Y0092783
X0047224
X0046424
Y0093683
X0047224
X0048024
X0046824Y0090483
Y0089683
Y0088883
X0050224Y00873
X0049482Y0085169
X0050403Y0084033
X0050251Y008217
X0051072Y0082505
X0052939Y008261
X0052674Y0081156
X0054544
X0052124Y0079783
X0050165Y0080264
X0048797Y0079689
Y0081559
X0045Y00835
X0042418Y0079375
X005364Y0085165
X00562Y0086225
X0057038Y008624
X0058597Y0086221
Y0088091
X0057038Y008811
X0056524Y0088883
Y0089683
Y0090483
X0058324Y0091
X0060194
X0062064
X0059184Y00924
X0057314
X0055444
X0053574
X0052714Y0091
X0051924Y0090483
Y0089683
Y0088883
X0057424Y0084283
X0058924Y0082983
X00603Y00835
X0060051Y0085334
X00608Y00862
X0066Y00859
X00673Y00861
X0069Y0085585
X00706Y008678
Y008865
Y009052
X00708Y00937
X0071Y0096087
Y0097957
Y0099827
X00724Y0100834
Y0102704
Y0104574
Y0106444
Y0108314
Y0110184
X00726Y01113
Y01122
Y01131
X00724Y0113924
X00717Y01149
X0072017Y0115754
X0070152Y0115627
X0068282
X0066412
X0064542
X0064004Y0114173
X0065874
X006684Y0113567
X0067744Y0114173
X0069614
X0071Y0112917
Y0111047
Y0107307
X00699Y0107018
X0070324Y0104683
Y0103883
Y0103083
X0069424
Y0103883
Y0104683
X0067539Y0104393
X0065834Y0104522
X0065738Y0102655
X0067192Y0102555
Y0096945
X0065738Y0097045
X0065855Y0093768
X0067192Y0095075
X00669Y0091
X0065781Y0090009
X006635Y008746
X00683Y00884
X00741Y00889
Y00897
Y00905
X00745Y00928
X00737
Y00937
X00745
X00753
Y00928
X00792Y00905
Y00897
Y00889
X0077Y00857
X0077527Y0082187
X0076073Y0082223
X00748Y00822
X0072Y0082164
Y0080294
X0072Y00842
X0076073Y0080353
X007747Y0080264
X0078907Y0082627
X0078707Y0097229
Y0098029
Y0098829
X0067627Y0110001
Y0111871
X0062155Y0113893
X0062715Y011603
X0058424Y0115483
X0059562Y0111931
X0056673Y0106426
Y0104556
X0056709Y010191
X00931Y0101509
X00945Y0101185
Y0103055
X00931Y0103379
Y0105249
X00967Y01047
Y01039
Y01031
X00976
Y01039
Y01047
X0099187Y010541
Y010795
Y011049
Y011303
Y011557
Y011811
X00969Y01189
X009163Y0115146
X00911Y01144
X0090634Y0113611
X0088791Y0113927
X0089991Y0116047
X00857Y01155
X0092802Y0113689
X0097176Y0107035
X0097476Y0098999
X0099187Y009779
Y010033
Y009525
X0097409Y0094996
X00945Y0095575
X00931Y0095899
Y0097769
X0094468Y0097475
Y0099345
X0093506Y0092204
X00942Y00912
X0095575Y0090255
X00956Y00884
X00955Y0086516
X00941Y0086719
X00937Y0085
X0099187Y008509
Y008763
Y009017
Y009271
X0092247Y009059
X0089773Y0091096
X0086033
X0085873Y0088605
Y0086735
X008434Y00871
X00838Y00889
Y00897
Y00905
X00847Y00843
X00862Y0083
X00876Y00836
X0088572Y0082698
X00881Y00862
X0080916Y0085182
X0080777Y0082627
X007995Y0081173
X008182
X00794Y00798
X0099187Y008001
Y008255
X0098297Y0119503
X00989Y01209
X0098297Y0122297
X00969Y01229
X0095503Y0122297
X00949Y01209
X0095503Y0119503
X0092583Y012319
X0090043
X0087503
X0084963
X0082423
X0079883
X0077343
X0074803
X0072263
X0069723
X0025597Y0122197
X00242Y01228
X0022803Y0122197
X00222Y01208
X0022803Y0119403
X0025597
X00262Y01208
T03
X00485Y01216
X0051
X00535
X0056
X00585
X0061
X00635
X0066
T04
X0036322Y0027051
Y0029591
Y0032131
Y0034671
Y0037211
X0084672Y0036195
Y0038735
Y0041275
Y0043815
Y0046355
Y0048895
Y0051435
Y0053975
Y0059055
Y0061595
Y0064135
Y0066675
Y0069215
Y0071755
X0036322
Y0069215
Y0066675
Y0064135
Y0061595
Y0059055
Y0056515
Y0053975
Y0049911
Y0047371
Y0044831
Y0042291
Y0039751
T05
X002335Y0108
Y011
Y0112
Y0114
X00311Y012165
X00331
X00351
X00371
T06
X004093Y00678
X004347
T07
X007392Y003
X0079
T08
X00969Y00754
X00242
X00969Y01208
X00242
M30
